<svg width="39" height="39" viewBox="0 0 39 39" fill="none" xmlns="http://www.w3.org/2000/svg">
<path d="M4.33334 39C3.14167 39 2.12117 38.5753 1.27184 37.726C0.422503 36.8767 -0.00144077 35.8569 3.67855e-06 34.6667V4.33334C3.67855e-06 3.14167 0.42467 2.12117 1.274 1.27184C2.12334 0.422503 3.14311 -0.00144077 4.33334 3.67855e-06H34.6667C35.8583 3.67855e-06 36.8788 0.42467 37.7282 1.274C38.5775 2.12334 39.0014 3.14311 39 4.33334V34.6667C39 35.8583 38.5753 36.8788 37.726 37.7282C36.8767 38.5775 35.8569 39.0014 34.6667 39H4.33334ZM4.33334 34.6667H34.6667V4.33334H4.33334V34.6667ZM6.5 30.3333H32.5L24.375 19.5L17.875 28.1667L13 21.6667L6.5 30.3333Z" fill="#B3B3B3"/>
</svg>
