<svg width="39" height="39" viewBox="0 0 39 39" fill="none" xmlns="http://www.w3.org/2000/svg">
<path d="M38.6447 36.9185L26.842 25.0002C29.0418 22.3559 30.3677 18.9539 30.3677 15.2392C30.3677 6.82289 23.5696 0 15.1838 0C6.7981 0 0 6.82289 0 15.2392C0 23.6555 6.7981 30.4784 15.1838 30.4784C18.9938 30.4784 22.4739 29.0666 25.1402 26.7393L36.9265 38.6429C37.4008 39.119 38.1704 39.119 38.6447 38.6429C39.1184 38.1668 39.1184 37.3951 38.6447 36.9185H38.6447ZM15.1838 28.0602C8.12881 28.0602 2.40937 22.3199 2.40937 15.2392C2.40937 8.15845 8.12881 2.41815 15.1838 2.41815C22.2388 2.41815 27.9583 8.15845 27.9583 15.2392C27.9583 22.3199 22.2388 28.0602 15.1838 28.0602Z" fill="#B3B3B3"/>
</svg>
